{
	"asset":{
		"generator":"Khronos glTF Blender I/O v3.6.28",
		"version":"2.0"
	},
	"extensionsUsed":[
		"KHR_lights_punctual"
	],
	"extensionsRequired":[
		"KHR_lights_punctual"
	],
	"extensions":{
		"KHR_lights_punctual":{
			"lights":[
				{
					"color":[
						1,
						1,
						1
					],
					"intensity":54351.41306588226,
					"type":"point",
					"name":"Light"
				},
				{
					"color":[
						1,
						1,
						1
					],
					"intensity":54351.41306588226,
					"type":"point",
					"name":"Light.001"
				},
				{
					"color":[
						1,
						1,
						1
					],
					"intensity":54351.41306588226,
					"type":"point",
					"name":"Light.002"
				}
			]
		}
	},
	"scene":0,
	"scenes":[
		{
			"name":"Scene",
			"nodes":[
				0,
				1,
				2,
				3,
				4
			]
		}
	],
	"nodes":[
		{
			"extensions":{
				"KHR_lights_punctual":{
					"light":0
				}
			},
			"name":"Light",
			"rotation":[
				-0.28416627645492554,
				0.7269423007965088,
				0.34203392267227173,
				0.5232754945755005
			],
			"translation":[
				1.3313438892364502,
				1.0998107194900513,
				1.450509786605835
			]
		},
		{
			"extensions":{
				"KHR_lights_punctual":{
					"light":1
				}
			},
			"name":"Light.001",
			"rotation":[
				-0.28416627645492554,
				0.7269423007965088,
				0.34203392267227173,
				0.5232754945755005
			],
			"translation":[
				1.3313438892364502,
				1.0998107194900513,
				-1.223017930984497
			]
		},
		{
			"extensions":{
				"KHR_lights_punctual":{
					"light":2
				}
			},
			"name":"Light.002",
			"rotation":[
				-0.28416627645492554,
				0.7269423007965088,
				0.34203392267227173,
				0.5232754945755005
			],
			"translation":[
				-1.578959345817566,
				-1.1460881233215332,
				-0.6018669605255127
			]
		},
		{
			"mesh":0,
			"name":"_(Loose Entity)"
		},
		{
			"mesh":1,
			"name":"Cube",
			"translation":[
				3.2241392135620117,
				0,
				0
			]
		}
	],
	"animations":[
		{
			"channels":[
				{
					"sampler":0,
					"target":{
						"node":4,
						"path":"translation"
					}
				}
			],
			"name":"CubeAction",
			"samplers":[
				{
					"input":16,
					"interpolation":"LINEAR",
					"output":17
				}
			]
		}
	],
	"materials":[
		{
			"doubleSided":true,
			"name":"[Color_A01]",
			"pbrMetallicRoughness":{
				"baseColorFactor":[
					1,
					0,
					0,
					1
				],
				"metallicFactor":0,
				"roughnessFactor":0.5
			}
		},
		{
			"doubleSided":true,
			"name":"[Color_I01]",
			"pbrMetallicRoughness":{
				"baseColorFactor":[
					0,
					0,
					1,
					1
				],
				"metallicFactor":0,
				"roughnessFactor":0.5
			}
		},
		{
			"doubleSided":true,
			"name":"[Color_G01]",
			"pbrMetallicRoughness":{
				"baseColorFactor":[
					0,
					1,
					0,
					1
				],
				"metallicFactor":0,
				"roughnessFactor":0.5
			}
		},
		{
			"doubleSided":true,
			"name":"Material",
			"pbrMetallicRoughness":{
				"baseColorFactor":[
					0.800000011920929,
					0.800000011920929,
					0.800000011920929,
					1
				],
				"metallicFactor":0,
				"roughnessFactor":0.5
			}
		}
	],
	"meshes":[
		{
			"name":"_(Loose Entity)",
			"primitives":[
				{
					"attributes":{
						"POSITION":0,
						"NORMAL":1
					},
					"indices":2,
					"material":0
				},
				{
					"attributes":{
						"POSITION":3,
						"NORMAL":4
					},
					"indices":5,
					"material":1
				},
				{
					"attributes":{
						"POSITION":6,
						"NORMAL":7
					},
					"indices":8,
					"material":2
				},
				{
					"attributes":{
						"POSITION":9,
						"NORMAL":10
					},
					"indices":11,
					"material":3
				}
			]
		},
		{
			"name":"Cube.001",
			"primitives":[
				{
					"attributes":{
						"POSITION":12,
						"NORMAL":13,
						"TEXCOORD_0":14
					},
					"indices":15
				}
			]
		}
	],
	"accessors":[
		{
			"bufferView":0,
			"componentType":5126,
			"count":25,
			"max":[
				1,
				0.5,
				1
			],
			"min":[
				-1,
				-1,
				-1
			],
			"type":"VEC3"
		},
		{
			"bufferView":1,
			"componentType":5126,
			"count":25,
			"type":"VEC3"
		},
		{
			"bufferView":2,
			"componentType":5123,
			"count":39,
			"type":"SCALAR"
		},
		{
			"bufferView":3,
			"componentType":5126,
			"count":39,
			"max":[
				1,
				0.5,
				1
			],
			"min":[
				-1,
				-1,
				-1
			],
			"type":"VEC3"
		},
		{
			"bufferView":4,
			"componentType":5126,
			"count":39,
			"type":"VEC3"
		},
		{
			"bufferView":5,
			"componentType":5123,
			"count":60,
			"type":"SCALAR"
		},
		{
			"bufferView":6,
			"componentType":5126,
			"count":25,
			"max":[
				1,
				0.5,
				1
			],
			"min":[
				-1,
				-1,
				-1
			],
			"type":"VEC3"
		},
		{
			"bufferView":7,
			"componentType":5126,
			"count":25,
			"type":"VEC3"
		},
		{
			"bufferView":8,
			"componentType":5123,
			"count":39,
			"type":"SCALAR"
		},
		{
			"bufferView":9,
			"componentType":5126,
			"count":12,
			"max":[
				1,
				0.5,
				1
			],
			"min":[
				-1,
				-0.5,
				0
			],
			"type":"VEC3"
		},
		{
			"bufferView":10,
			"componentType":5126,
			"count":12,
			"type":"VEC3"
		},
		{
			"bufferView":11,
			"componentType":5123,
			"count":18,
			"type":"SCALAR"
		},
		{
			"bufferView":12,
			"componentType":5126,
			"count":24,
			"max":[
				1,
				1,
				1
			],
			"min":[
				-1,
				-1,
				-1
			],
			"type":"VEC3"
		},
		{
			"bufferView":13,
			"componentType":5126,
			"count":24,
			"type":"VEC3"
		},
		{
			"bufferView":14,
			"componentType":5126,
			"count":24,
			"type":"VEC2"
		},
		{
			"bufferView":15,
			"componentType":5123,
			"count":36,
			"type":"SCALAR"
		},
		{
			"bufferView":16,
			"componentType":5126,
			"count":100,
			"max":[
				4.125
			],
			"min":[
				0
			],
			"type":"SCALAR"
		},
		{
			"bufferView":17,
			"componentType":5126,
			"count":100,
			"type":"VEC3"
		}
	],
	"bufferViews":[
		{
			"buffer":0,
			"byteLength":300,
			"byteOffset":0,
			"target":34962
		},
		{
			"buffer":0,
			"byteLength":300,
			"byteOffset":300,
			"target":34962
		},
		{
			"buffer":0,
			"byteLength":78,
			"byteOffset":600,
			"target":34963
		},
		{
			"buffer":0,
			"byteLength":468,
			"byteOffset":680,
			"target":34962
		},
		{
			"buffer":0,
			"byteLength":468,
			"byteOffset":1148,
			"target":34962
		},
		{
			"buffer":0,
			"byteLength":120,
			"byteOffset":1616,
			"target":34963
		},
		{
			"buffer":0,
			"byteLength":300,
			"byteOffset":1736,
			"target":34962
		},
		{
			"buffer":0,
			"byteLength":300,
			"byteOffset":2036,
			"target":34962
		},
		{
			"buffer":0,
			"byteLength":78,
			"byteOffset":2336,
			"target":34963
		},
		{
			"buffer":0,
			"byteLength":144,
			"byteOffset":2416,
			"target":34962
		},
		{
			"buffer":0,
			"byteLength":144,
			"byteOffset":2560,
			"target":34962
		},
		{
			"buffer":0,
			"byteLength":36,
			"byteOffset":2704,
			"target":34963
		},
		{
			"buffer":0,
			"byteLength":288,
			"byteOffset":2740,
			"target":34962
		},
		{
			"buffer":0,
			"byteLength":288,
			"byteOffset":3028,
			"target":34962
		},
		{
			"buffer":0,
			"byteLength":192,
			"byteOffset":3316,
			"target":34962
		},
		{
			"buffer":0,
			"byteLength":72,
			"byteOffset":3508,
			"target":34963
		},
		{
			"buffer":0,
			"byteLength":400,
			"byteOffset":3580
		},
		{
			"buffer":0,
			"byteLength":1200,
			"byteOffset":3980
		}
	],
	"buffers":[
		{
			"byteLength":5180,
			"uri":"data:application/octet-stream;base64,"
		}
	]
}
